<mxfile host="Electron" modified="2023-12-07T22:47:21.036Z" agent="Mozilla/5.0 (Macintosh; Intel Mac OS X 10_15_7) AppleWebKit/537.36 (KHTML, like Gecko) draw.io/22.0.3 Chrome/114.0.5735.289 Electron/25.8.4 Safari/537.36" etag="vTUssNZtF4UDbdyo5oe0" version="22.0.3" type="device">
  <diagram name="Page-1" id="-p6_Q2hTXNFAEgyIho1B">
    <mxGraphModel dx="838" dy="1933" grid="1" gridSize="10" guides="1" tooltips="1" connect="1" arrows="1" fold="1" page="1" pageScale="1" pageWidth="1169" pageHeight="827" math="0" shadow="0">
      <root>
        <mxCell id="0" />
        <mxCell id="1" parent="0" />
        <mxCell id="678fTt0cwtXBxYmcVB4q-3" value="Operations And Monitoring" style="points=[[0,0],[0.25,0],[0.5,0],[0.75,0],[1,0],[1,0.25],[1,0.5],[1,0.75],[1,1],[0.75,1],[0.5,1],[0.25,1],[0,1],[0,0.75],[0,0.5],[0,0.25]];outlineConnect=0;gradientColor=none;html=1;whiteSpace=wrap;fontSize=12;fontStyle=0;shape=mxgraph.aws4.group;grIcon=mxgraph.aws4.group_aws_cloud_alt;strokeColor=#232F3E;fillColor=none;verticalAlign=top;align=left;spacingLeft=30;fontColor=#232F3E;dashed=0;" vertex="1" parent="1">
          <mxGeometry x="2240" y="-240" width="298" height="160" as="geometry" />
        </mxCell>
        <mxCell id="678fTt0cwtXBxYmcVB4q-4" value="Availability Zone 2" style="fillColor=none;strokeColor=#147EBA;dashed=1;verticalAlign=top;fontStyle=0;fontColor=#147EBA;fontSize=16;" vertex="1" parent="1">
          <mxGeometry x="1760" y="290" width="470" height="270" as="geometry" />
        </mxCell>
        <mxCell id="678fTt0cwtXBxYmcVB4q-5" value="VPC" style="points=[[0,0],[0.25,0],[0.5,0],[0.75,0],[1,0],[1,0.25],[1,0.5],[1,0.75],[1,1],[0.75,1],[0.5,1],[0.25,1],[0,1],[0,0.75],[0,0.5],[0,0.25]];outlineConnect=0;gradientColor=none;html=1;whiteSpace=wrap;fontSize=12;fontStyle=0;shape=mxgraph.aws4.group;grIcon=mxgraph.aws4.group_vpc;strokeColor=#248814;fillColor=none;verticalAlign=top;align=left;spacingLeft=30;fontColor=#AAB7B8;dashed=0;" vertex="1" parent="1">
          <mxGeometry x="1650" width="610" height="580" as="geometry" />
        </mxCell>
        <mxCell id="678fTt0cwtXBxYmcVB4q-6" value="Availability Zone 1" style="fillColor=none;strokeColor=#147EBA;dashed=1;verticalAlign=top;fontStyle=0;fontColor=#147EBA;fontSize=16;" vertex="1" parent="1">
          <mxGeometry x="1760" y="10" width="470" height="270" as="geometry" />
        </mxCell>
        <mxCell id="678fTt0cwtXBxYmcVB4q-8" value="Private subnet" style="points=[[0,0],[0.25,0],[0.5,0],[0.75,0],[1,0],[1,0.25],[1,0.5],[1,0.75],[1,1],[0.75,1],[0.5,1],[0.25,1],[0,1],[0,0.75],[0,0.5],[0,0.25]];outlineConnect=0;gradientColor=none;html=1;whiteSpace=wrap;fontSize=12;fontStyle=0;shape=mxgraph.aws4.group;grIcon=mxgraph.aws4.group_security_group;grStroke=0;strokeColor=#147EBA;fillColor=#E6F2F8;verticalAlign=top;align=left;spacingLeft=30;fontColor=#147EBA;dashed=0;" vertex="1" parent="1">
          <mxGeometry x="1820" y="44" width="380" height="206" as="geometry" />
        </mxCell>
        <mxCell id="678fTt0cwtXBxYmcVB4q-9" value="Private subnet" style="points=[[0,0],[0.25,0],[0.5,0],[0.75,0],[1,0],[1,0.25],[1,0.5],[1,0.75],[1,1],[0.75,1],[0.5,1],[0.25,1],[0,1],[0,0.75],[0,0.5],[0,0.25]];outlineConnect=0;gradientColor=none;html=1;whiteSpace=wrap;fontSize=12;fontStyle=0;shape=mxgraph.aws4.group;grIcon=mxgraph.aws4.group_security_group;grStroke=0;strokeColor=#147EBA;fillColor=#E6F2F8;verticalAlign=top;align=left;spacingLeft=30;fontColor=#147EBA;dashed=0;" vertex="1" parent="1">
          <mxGeometry x="1820" y="340" width="380" height="200" as="geometry" />
        </mxCell>
        <mxCell id="678fTt0cwtXBxYmcVB4q-10" style="edgeStyle=orthogonalEdgeStyle;rounded=0;orthogonalLoop=1;jettySize=auto;html=1;exitX=1;exitY=0.5;exitDx=0;exitDy=0;entryX=0;entryY=0.5;entryDx=0;entryDy=0;entryPerimeter=0;fontSize=16;startArrow=none;startFill=0;endArrow=classic;endFill=1;strokeWidth=1;exitPerimeter=0;" edge="1" parent="1" source="678fTt0cwtXBxYmcVB4q-57" target="678fTt0cwtXBxYmcVB4q-62">
          <mxGeometry relative="1" as="geometry">
            <mxPoint x="2164" y="190" as="sourcePoint" />
            <mxPoint x="2380" y="290" as="targetPoint" />
          </mxGeometry>
        </mxCell>
        <mxCell id="678fTt0cwtXBxYmcVB4q-11" style="edgeStyle=orthogonalEdgeStyle;rounded=0;orthogonalLoop=1;jettySize=auto;html=1;exitX=1;exitY=0.5;exitDx=0;exitDy=0;fontSize=16;startArrow=none;startFill=0;endArrow=classic;endFill=1;strokeWidth=1;entryX=0;entryY=0.5;entryDx=0;entryDy=0;entryPerimeter=0;exitPerimeter=0;" edge="1" parent="1" source="678fTt0cwtXBxYmcVB4q-58" target="678fTt0cwtXBxYmcVB4q-62">
          <mxGeometry relative="1" as="geometry">
            <mxPoint x="2380" y="290" as="targetPoint" />
            <mxPoint x="2164" y="410" as="sourcePoint" />
          </mxGeometry>
        </mxCell>
        <mxCell id="678fTt0cwtXBxYmcVB4q-13" value="AWS Fargate&lt;br&gt;running Flask" style="sketch=0;points=[[0,0,0],[0.25,0,0],[0.5,0,0],[0.75,0,0],[1,0,0],[0,1,0],[0.25,1,0],[0.5,1,0],[0.75,1,0],[1,1,0],[0,0.25,0],[0,0.5,0],[0,0.75,0],[1,0.25,0],[1,0.5,0],[1,0.75,0]];outlineConnect=0;fontColor=#232F3E;gradientColor=#F78E04;gradientDirection=north;fillColor=#D05C17;strokeColor=#ffffff;dashed=0;verticalLabelPosition=bottom;verticalAlign=top;align=center;html=1;fontSize=12;fontStyle=0;aspect=fixed;shape=mxgraph.aws4.resourceIcon;resIcon=mxgraph.aws4.fargate;" vertex="1" parent="1">
          <mxGeometry x="1860" y="132" width="78" height="78" as="geometry" />
        </mxCell>
        <mxCell id="678fTt0cwtXBxYmcVB4q-30" value="AWS &lt;br&gt;CloudTrail" style="sketch=0;points=[[0,0,0],[0.25,0,0],[0.5,0,0],[0.75,0,0],[1,0,0],[0,1,0],[0.25,1,0],[0.5,1,0],[0.75,1,0],[1,1,0],[0,0.25,0],[0,0.5,0],[0,0.75,0],[1,0.25,0],[1,0.5,0],[1,0.75,0]];points=[[0,0,0],[0.25,0,0],[0.5,0,0],[0.75,0,0],[1,0,0],[0,1,0],[0.25,1,0],[0.5,1,0],[0.75,1,0],[1,1,0],[0,0.25,0],[0,0.5,0],[0,0.75,0],[1,0.25,0],[1,0.5,0],[1,0.75,0]];outlineConnect=0;fontColor=#232F3E;gradientColor=#F34482;gradientDirection=north;fillColor=#BC1356;strokeColor=#ffffff;dashed=0;verticalLabelPosition=bottom;verticalAlign=top;align=center;html=1;fontSize=12;fontStyle=0;aspect=fixed;shape=mxgraph.aws4.resourceIcon;resIcon=mxgraph.aws4.cloudwatch_2;" vertex="1" parent="1">
          <mxGeometry x="2400" y="-205" width="78" height="78" as="geometry" />
        </mxCell>
        <mxCell id="678fTt0cwtXBxYmcVB4q-31" value="AWS &lt;br&gt;CloudWatch" style="sketch=0;points=[[0,0,0],[0.25,0,0],[0.5,0,0],[0.75,0,0],[1,0,0],[0,1,0],[0.25,1,0],[0.5,1,0],[0.75,1,0],[1,1,0],[0,0.25,0],[0,0.5,0],[0,0.75,0],[1,0.25,0],[1,0.5,0],[1,0.75,0]];points=[[0,0,0],[0.25,0,0],[0.5,0,0],[0.75,0,0],[1,0,0],[0,1,0],[0.25,1,0],[0.5,1,0],[0.75,1,0],[1,1,0],[0,0.25,0],[0,0.5,0],[0,0.75,0],[1,0.25,0],[1,0.5,0],[1,0.75,0]];outlineConnect=0;fontColor=#232F3E;gradientColor=#F34482;gradientDirection=north;fillColor=#BC1356;strokeColor=#ffffff;dashed=0;verticalLabelPosition=bottom;verticalAlign=top;align=center;html=1;fontSize=12;fontStyle=0;aspect=fixed;shape=mxgraph.aws4.resourceIcon;resIcon=mxgraph.aws4.cloudtrail;" vertex="1" parent="1">
          <mxGeometry x="2289" y="-206" width="78" height="78" as="geometry" />
        </mxCell>
        <mxCell id="678fTt0cwtXBxYmcVB4q-33" style="edgeStyle=orthogonalEdgeStyle;rounded=0;orthogonalLoop=1;jettySize=auto;html=1;entryX=0;entryY=0.5;entryDx=0;entryDy=0;entryPerimeter=0;fontSize=16;startArrow=none;startFill=0;endArrow=classic;endFill=1;strokeWidth=1;" edge="1" parent="1" source="678fTt0cwtXBxYmcVB4q-36" target="678fTt0cwtXBxYmcVB4q-42">
          <mxGeometry relative="1" as="geometry">
            <mxPoint x="1480" y="289" as="targetPoint" />
          </mxGeometry>
        </mxCell>
        <mxCell id="678fTt0cwtXBxYmcVB4q-36" value="Internal User" style="sketch=0;outlineConnect=0;fontColor=#232F3E;gradientColor=none;fillColor=#232F3E;strokeColor=none;dashed=0;verticalLabelPosition=bottom;verticalAlign=top;align=center;html=1;fontSize=12;fontStyle=0;aspect=fixed;pointerEvents=1;shape=mxgraph.aws4.client;" vertex="1" parent="1">
          <mxGeometry x="1440" y="257" width="67.74" height="66" as="geometry" />
        </mxCell>
        <mxCell id="678fTt0cwtXBxYmcVB4q-40" style="edgeStyle=orthogonalEdgeStyle;rounded=0;orthogonalLoop=1;jettySize=auto;html=1;entryX=0;entryY=0.5;entryDx=0;entryDy=0;fontSize=16;startArrow=none;startFill=0;endArrow=classic;endFill=1;strokeWidth=1;entryPerimeter=0;" edge="1" parent="1" source="678fTt0cwtXBxYmcVB4q-42" target="678fTt0cwtXBxYmcVB4q-13">
          <mxGeometry relative="1" as="geometry">
            <mxPoint x="1824" y="190" as="targetPoint" />
          </mxGeometry>
        </mxCell>
        <mxCell id="678fTt0cwtXBxYmcVB4q-41" style="edgeStyle=orthogonalEdgeStyle;rounded=0;orthogonalLoop=1;jettySize=auto;html=1;fontSize=16;startArrow=none;startFill=0;endArrow=classic;endFill=1;strokeWidth=1;entryX=0;entryY=0.5;entryDx=0;entryDy=0;entryPerimeter=0;" edge="1" parent="1" source="678fTt0cwtXBxYmcVB4q-42" target="678fTt0cwtXBxYmcVB4q-47">
          <mxGeometry relative="1" as="geometry">
            <mxPoint x="1824" y="410" as="targetPoint" />
          </mxGeometry>
        </mxCell>
        <mxCell id="678fTt0cwtXBxYmcVB4q-42" value="Internal &lt;br&gt;Application&lt;br&gt;Load Balancer" style="sketch=0;points=[[0,0,0],[0.25,0,0],[0.5,0,0],[0.75,0,0],[1,0,0],[0,1,0],[0.25,1,0],[0.5,1,0],[0.75,1,0],[1,1,0],[0,0.25,0],[0,0.5,0],[0,0.75,0],[1,0.25,0],[1,0.5,0],[1,0.75,0]];outlineConnect=0;fontColor=#232F3E;gradientColor=#945DF2;gradientDirection=north;fillColor=#5A30B5;strokeColor=#ffffff;dashed=0;verticalLabelPosition=bottom;verticalAlign=top;align=center;html=1;fontSize=12;fontStyle=0;aspect=fixed;shape=mxgraph.aws4.resourceIcon;resIcon=mxgraph.aws4.elastic_load_balancing;" vertex="1" parent="1">
          <mxGeometry x="1670" y="250" width="78" height="78" as="geometry" />
        </mxCell>
        <mxCell id="678fTt0cwtXBxYmcVB4q-45" style="edgeStyle=orthogonalEdgeStyle;rounded=0;orthogonalLoop=1;jettySize=auto;html=1;fontSize=16;endArrow=classic;endFill=1;strokeWidth=1;" edge="1" parent="1" target="678fTt0cwtXBxYmcVB4q-16">
          <mxGeometry relative="1" as="geometry">
            <mxPoint x="1270" y="-260" as="targetPoint" />
            <mxPoint x="1258" y="-259" as="sourcePoint" />
          </mxGeometry>
        </mxCell>
        <mxCell id="678fTt0cwtXBxYmcVB4q-47" value="AWS Fargate&lt;br&gt;(optional)" style="sketch=0;points=[[0,0,0],[0.25,0,0],[0.5,0,0],[0.75,0,0],[1,0,0],[0,1,0],[0.25,1,0],[0.5,1,0],[0.75,1,0],[1,1,0],[0,0.25,0],[0,0.5,0],[0,0.75,0],[1,0.25,0],[1,0.5,0],[1,0.75,0]];outlineConnect=0;fontColor=#232F3E;gradientColor=#F78E04;gradientDirection=north;fillColor=#D05C17;strokeColor=#ffffff;dashed=0;verticalLabelPosition=bottom;verticalAlign=top;align=center;html=1;fontSize=12;fontStyle=0;aspect=fixed;shape=mxgraph.aws4.resourceIcon;resIcon=mxgraph.aws4.fargate;opacity=50;" vertex="1" parent="1">
          <mxGeometry x="1860" y="410" width="78" height="78" as="geometry" />
        </mxCell>
        <mxCell id="678fTt0cwtXBxYmcVB4q-53" style="edgeStyle=orthogonalEdgeStyle;rounded=0;orthogonalLoop=1;jettySize=auto;html=1;exitX=0.75;exitY=1;exitDx=0;exitDy=0;exitPerimeter=0;fontSize=16;startArrow=none;startFill=0;endArrow=classic;endFill=1;strokeWidth=1;entryX=0.75;entryY=0;entryDx=0;entryDy=0;entryPerimeter=0;" edge="1" parent="1" source="678fTt0cwtXBxYmcVB4q-54" target="678fTt0cwtXBxYmcVB4q-57">
          <mxGeometry relative="1" as="geometry">
            <mxPoint x="2079" y="80" as="targetPoint" />
          </mxGeometry>
        </mxCell>
        <mxCell id="678fTt0cwtXBxYmcVB4q-54" value="Amazon ECR" style="sketch=0;points=[[0,0,0],[0.25,0,0],[0.5,0,0],[0.75,0,0],[1,0,0],[0,1,0],[0.25,1,0],[0.5,1,0],[0.75,1,0],[1,1,0],[0,0.25,0],[0,0.5,0],[0,0.75,0],[1,0.25,0],[1,0.5,0],[1,0.75,0]];outlineConnect=0;fontColor=#232F3E;gradientColor=#F78E04;gradientDirection=north;fillColor=#D05C17;strokeColor=#ffffff;dashed=0;verticalLabelPosition=middle;verticalAlign=middle;align=right;html=1;fontSize=12;fontStyle=0;aspect=fixed;shape=mxgraph.aws4.resourceIcon;resIcon=mxgraph.aws4.ecr;labelPosition=left;" vertex="1" parent="1">
          <mxGeometry x="2029" y="-151" width="78" height="78" as="geometry" />
        </mxCell>
        <mxCell id="678fTt0cwtXBxYmcVB4q-57" value="AWS ECS" style="sketch=0;points=[[0,0,0],[0.25,0,0],[0.5,0,0],[0.75,0,0],[1,0,0],[0,1,0],[0.25,1,0],[0.5,1,0],[0.75,1,0],[1,1,0],[0,0.25,0],[0,0.5,0],[0,0.75,0],[1,0.25,0],[1,0.5,0],[1,0.75,0]];outlineConnect=0;fontColor=#232F3E;gradientColor=#F78E04;gradientDirection=north;fillColor=#D05C17;strokeColor=#ffffff;dashed=0;verticalLabelPosition=bottom;verticalAlign=top;align=center;html=1;fontSize=12;fontStyle=0;aspect=fixed;shape=mxgraph.aws4.resourceIcon;resIcon=mxgraph.aws4.ecs;" vertex="1" parent="1">
          <mxGeometry x="2030" y="132" width="78" height="78" as="geometry" />
        </mxCell>
        <mxCell id="678fTt0cwtXBxYmcVB4q-58" value="AWS ECS" style="sketch=0;points=[[0,0,0],[0.25,0,0],[0.5,0,0],[0.75,0,0],[1,0,0],[0,1,0],[0.25,1,0],[0.5,1,0],[0.75,1,0],[1,1,0],[0,0.25,0],[0,0.5,0],[0,0.75,0],[1,0.25,0],[1,0.5,0],[1,0.75,0]];outlineConnect=0;fontColor=#232F3E;gradientColor=#F78E04;gradientDirection=north;fillColor=#D05C17;strokeColor=#ffffff;dashed=0;verticalLabelPosition=bottom;verticalAlign=top;align=center;html=1;fontSize=12;fontStyle=0;aspect=fixed;shape=mxgraph.aws4.resourceIcon;resIcon=mxgraph.aws4.ecs;opacity=50;" vertex="1" parent="1">
          <mxGeometry x="2030" y="410" width="78" height="78" as="geometry" />
        </mxCell>
        <mxCell id="678fTt0cwtXBxYmcVB4q-62" value="CodeArtfact" style="sketch=0;points=[[0,0,0],[0.25,0,0],[0.5,0,0],[0.75,0,0],[1,0,0],[0,1,0],[0.25,1,0],[0.5,1,0],[0.75,1,0],[1,1,0],[0,0.25,0],[0,0.5,0],[0,0.75,0],[1,0.25,0],[1,0.5,0],[1,0.75,0]];outlineConnect=0;fontColor=#232F3E;fillColor=#C925D1;strokeColor=#ffffff;dashed=0;verticalLabelPosition=bottom;verticalAlign=top;align=center;html=1;fontSize=12;fontStyle=0;aspect=fixed;shape=mxgraph.aws4.resourceIcon;resIcon=mxgraph.aws4.codeartifact;" vertex="1" parent="1">
          <mxGeometry x="2367" y="270" width="78" height="78" as="geometry" />
        </mxCell>
        <mxCell id="678fTt0cwtXBxYmcVB4q-63" value="AWS Cloud" style="points=[[0,0],[0.25,0],[0.5,0],[0.75,0],[1,0],[1,0.25],[1,0.5],[1,0.75],[1,1],[0.75,1],[0.5,1],[0.25,1],[0,1],[0,0.75],[0,0.5],[0,0.25]];outlineConnect=0;gradientColor=none;html=1;whiteSpace=wrap;fontSize=12;fontStyle=0;container=1;pointerEvents=0;collapsible=0;recursiveResize=0;shape=mxgraph.aws4.group;grIcon=mxgraph.aws4.group_aws_cloud_alt;strokeColor=#232F3E;fillColor=none;verticalAlign=top;align=left;spacingLeft=30;fontColor=#232F3E;dashed=0;" vertex="1" parent="1">
          <mxGeometry x="1300" y="-260" width="1280" height="870" as="geometry" />
        </mxCell>
      </root>
    </mxGraphModel>
  </diagram>
</mxfile>
